<svg width="130" height="285" viewBox="0 0 130 285" fill="none" xmlns="http://www.w3.org/2000/svg">
<path d="M7.55859 282.479C7.55859 278.657 10.6565 275.559 14.478 275.559H39.5866V282.479H7.55859Z" fill="#242424"/>
<rect width="28.7152" height="72.0989" rx="13.0073" transform="matrix(0.972121 -0.234478 0.285292 0.958441 1.15332 215.404)" fill="#242424"/>
<path d="M121.604 282.479C121.604 278.657 118.506 275.559 114.685 275.559H89.576V282.479H121.604Z" fill="#242424"/>
<rect width="28.7121" height="72.0911" rx="13.0059" transform="matrix(-0.972121 -0.234478 -0.285292 0.958441 128.009 215.404)" fill="#242424"/>
<path d="M33.3839 143.288C35.0941 127.346 48.548 115.259 64.5812 115.259C80.6143 115.259 94.0682 127.347 95.7784 143.288L107.425 251.848C109.18 268.209 96.3592 282.478 79.9049 282.478H49.2574C32.8031 282.478 19.9825 268.209 21.7376 251.848L33.3839 143.288Z" fill="#231B11"/>
<path d="M34.5972 199.373C47.0539 194.956 60.6409 177.011 65.6522 163.695L65.7346 282.478C55.8233 258.221 35.2939 199.096 34.5972 199.373Z" fill="url(#paint0_linear_229_230)"/>
<path d="M94.5654 198.271C82.7972 193.796 70.3865 177.186 65.6521 163.695L65.7345 282.478C75.098 257.902 93.9072 197.991 94.5654 198.271Z" fill="url(#paint1_linear_229_230)"/>
<path d="M47.5109 268.64H33.535C29.6757 268.64 24.2178 274.836 24.2178 282.478H56.8281C56.8281 274.836 51.3702 268.64 47.5109 268.64Z" fill="#C4B19A"/>
<path d="M33.5347 282.478C33.5347 279.019 33.5347 273.252 35.864 272.099" stroke="black" stroke-width="1.15324"/>
<path d="M46.3462 282.478C46.3462 279.019 46.3462 273.252 44.0169 272.099" stroke="black" stroke-width="1.15324"/>
<path d="M95.9469 268.64H81.9711C78.1117 268.64 72.6538 274.836 72.6538 282.478H105.264C105.264 274.836 99.8063 268.64 95.9469 268.64Z" fill="#C4B19A"/>
<path d="M83.1357 282.478C83.1357 279.019 83.1357 273.252 85.4651 272.099" stroke="black" stroke-width="1.15324"/>
<path d="M95.9468 282.478C95.9468 279.019 95.9468 273.252 93.6175 272.099" stroke="black" stroke-width="1.15324"/>
<path d="M27.356 41.7805C30.6675 25.6615 58.8149 66.1972 58.8149 66.1972C45.5692 69.5321 35.0216 94.3507 32.5432 96.8073C20.6219 91.4714 24.0446 57.8995 27.356 41.7805Z" fill="black"/>
<path d="M101.714 41.7805C98.4124 25.6615 70.3472 66.1972 70.3472 66.1972C83.5542 69.5321 93.4598 95.1398 96.7615 96.8073C108.648 91.4714 105.016 57.8995 101.714 41.7805Z" fill="black"/>
<path d="M100.349 109.86C106.196 133.144 88.589 155.719 64.5815 155.719C40.5741 155.719 22.9672 133.144 28.8139 109.86L35.1062 84.8005C38.1967 72.4929 49.2609 63.8634 61.9506 63.8634H67.2124C79.9022 63.8634 90.9664 72.4928 94.0568 84.8005L100.349 109.86Z" fill="#4B4745"/>
<circle cx="49.0129" cy="96.8074" r="3.45971" fill="black"/>
<circle cx="78.9973" cy="96.8074" r="3.45971" fill="black"/>
<path d="M17.2988 118.659C29.0042 110.172 53.1453 112.591 60.5452 116.685V129.371C49.2435 130.264 36.8078 143.765 32.4351 148.976C30.8205 148.529 28.3987 142.853 28.3987 140.992C25.5733 140.992 22.5124 145.087 21.3352 147.134C20.1243 140.434 23.1851 132.431 24.8669 129.267C22.8488 128.374 20.3261 131.128 19.317 132.617C17.7025 129.937 20.9988 124.428 22.8488 122.009C21.6379 119.776 18.6443 118.845 17.2988 118.659Z" fill="#D6C6B4" stroke="#4D4D4D"/>
<path d="M113.594 118.733C101.889 110.154 76.5945 112.574 69.1946 116.713V129.457C80.4963 130.36 92.0671 143.736 96.4398 149.004C98.0544 148.552 102.494 143.19 102.494 141.309C105.32 141.309 108.381 145.448 109.558 147.517C110.769 140.744 107.708 132.655 106.026 129.457C108.044 128.554 110.567 131.338 111.576 132.843C113.191 130.134 109.894 124.565 108.044 122.119C109.255 119.862 112.249 118.921 113.594 118.733Z" fill="#D6C6B4" stroke="#4D4D4D"/>
<path d="M64.0051 130.251V133.711C63.6207 135.248 59.1615 140.63 53.626 140.63" stroke="black" stroke-width="1.15324"/>
<path d="M64.0051 130.251V133.711C64.4376 135.248 68.1568 140.63 74.3843 140.63" stroke="black" stroke-width="1.15324"/>
<ellipse cx="64.0051" cy="123.332" rx="10.3791" ry="6.91943" fill="black"/>
<defs>
<linearGradient id="paint0_linear_229_230" x1="50.1659" y1="163.695" x2="50.1659" y2="282.478" gradientUnits="userSpaceOnUse">
<stop stop-color="#65534D"/>
<stop offset="1" stop-color="#45403E"/>
</linearGradient>
<linearGradient id="paint1_linear_229_230" x1="80.1088" y1="163.695" x2="80.1088" y2="282.478" gradientUnits="userSpaceOnUse">
<stop stop-color="#65534D"/>
<stop offset="1" stop-color="#45403E"/>
</linearGradient>
</defs>
</svg>
